<mxfile host="app.diagrams.net" modified="2023-02-05T14:08:23.866Z" agent="5.0 (Windows NT 10.0; Win64; x64) AppleWebKit/537.36 (KHTML, like Gecko) Chrome/109.0.0.0 Safari/537.36" etag="iy52NXa9LdD6JmkcZs0p" version="20.8.16" type="github">
  <diagram name="Page-1" id="h6N6hxmh_-UYtkU3kEGz">
    <mxGraphModel dx="2465" dy="2008" grid="1" gridSize="10" guides="1" tooltips="1" connect="1" arrows="1" fold="1" page="1" pageScale="1" pageWidth="850" pageHeight="1100" math="0" shadow="0">
      <root>
        <mxCell id="0" />
        <mxCell id="1" parent="0" />
        <mxCell id="GpLW6nzXxRdVSaPpqpkO-20" style="edgeStyle=orthogonalEdgeStyle;rounded=0;orthogonalLoop=1;jettySize=auto;html=1;" edge="1" parent="1" source="GpLW6nzXxRdVSaPpqpkO-18" target="GpLW6nzXxRdVSaPpqpkO-13">
          <mxGeometry relative="1" as="geometry" />
        </mxCell>
        <mxCell id="GpLW6nzXxRdVSaPpqpkO-22" style="edgeStyle=orthogonalEdgeStyle;rounded=0;orthogonalLoop=1;jettySize=auto;html=1;" edge="1" parent="1" source="GpLW6nzXxRdVSaPpqpkO-18" target="GpLW6nzXxRdVSaPpqpkO-10">
          <mxGeometry relative="1" as="geometry" />
        </mxCell>
        <mxCell id="GpLW6nzXxRdVSaPpqpkO-18" value="" style="verticalLabelPosition=bottom;sketch=0;aspect=fixed;html=1;verticalAlign=top;strokeColor=none;align=center;outlineConnect=0;shape=mxgraph.citrix.command_center;" vertex="1" parent="1">
          <mxGeometry x="276.5" y="127" width="75.5" height="96" as="geometry" />
        </mxCell>
        <mxCell id="GpLW6nzXxRdVSaPpqpkO-35" style="edgeStyle=orthogonalEdgeStyle;rounded=0;orthogonalLoop=1;jettySize=auto;html=1;" edge="1" parent="1" source="GpLW6nzXxRdVSaPpqpkO-1" target="GpLW6nzXxRdVSaPpqpkO-2">
          <mxGeometry relative="1" as="geometry" />
        </mxCell>
        <mxCell id="GpLW6nzXxRdVSaPpqpkO-1" value="" style="fontColor=#0066CC;verticalAlign=top;verticalLabelPosition=bottom;labelPosition=center;align=center;html=1;outlineConnect=0;fillColor=#CCCCCC;strokeColor=#6881B3;gradientColor=none;gradientDirection=north;strokeWidth=2;shape=mxgraph.networks.pc;" vertex="1" parent="1">
          <mxGeometry x="790" y="330" width="100" height="70" as="geometry" />
        </mxCell>
        <mxCell id="GpLW6nzXxRdVSaPpqpkO-36" style="edgeStyle=orthogonalEdgeStyle;rounded=0;orthogonalLoop=1;jettySize=auto;html=1;" edge="1" parent="1" source="GpLW6nzXxRdVSaPpqpkO-2" target="GpLW6nzXxRdVSaPpqpkO-3">
          <mxGeometry relative="1" as="geometry" />
        </mxCell>
        <mxCell id="GpLW6nzXxRdVSaPpqpkO-2" value="" style="fontColor=#0066CC;verticalAlign=top;verticalLabelPosition=bottom;labelPosition=center;align=center;html=1;outlineConnect=0;fillColor=#CCCCCC;strokeColor=#6881B3;gradientColor=none;gradientDirection=north;strokeWidth=2;shape=mxgraph.networks.pc;" vertex="1" parent="1">
          <mxGeometry x="660" y="330" width="100" height="70" as="geometry" />
        </mxCell>
        <mxCell id="GpLW6nzXxRdVSaPpqpkO-3" value="" style="fontColor=#0066CC;verticalAlign=top;verticalLabelPosition=bottom;labelPosition=center;align=center;html=1;outlineConnect=0;fillColor=#CCCCCC;strokeColor=#6881B3;gradientColor=none;gradientDirection=north;strokeWidth=2;shape=mxgraph.networks.pc;" vertex="1" parent="1">
          <mxGeometry x="520" y="330" width="100" height="70" as="geometry" />
        </mxCell>
        <mxCell id="GpLW6nzXxRdVSaPpqpkO-32" style="edgeStyle=orthogonalEdgeStyle;rounded=0;orthogonalLoop=1;jettySize=auto;html=1;" edge="1" parent="1" source="GpLW6nzXxRdVSaPpqpkO-4">
          <mxGeometry relative="1" as="geometry">
            <mxPoint x="450" y="290" as="targetPoint" />
          </mxGeometry>
        </mxCell>
        <mxCell id="GpLW6nzXxRdVSaPpqpkO-4" value="" style="fontColor=#0066CC;verticalAlign=top;verticalLabelPosition=bottom;labelPosition=center;align=center;html=1;outlineConnect=0;fillColor=#CCCCCC;strokeColor=#6881B3;gradientColor=none;gradientDirection=north;strokeWidth=2;shape=mxgraph.networks.pc;" vertex="1" parent="1">
          <mxGeometry x="530" y="420" width="100" height="70" as="geometry" />
        </mxCell>
        <mxCell id="GpLW6nzXxRdVSaPpqpkO-33" style="edgeStyle=orthogonalEdgeStyle;rounded=0;orthogonalLoop=1;jettySize=auto;html=1;" edge="1" parent="1" source="GpLW6nzXxRdVSaPpqpkO-5" target="GpLW6nzXxRdVSaPpqpkO-4">
          <mxGeometry relative="1" as="geometry" />
        </mxCell>
        <mxCell id="GpLW6nzXxRdVSaPpqpkO-5" value="" style="fontColor=#0066CC;verticalAlign=top;verticalLabelPosition=bottom;labelPosition=center;align=center;html=1;outlineConnect=0;fillColor=#CCCCCC;strokeColor=#6881B3;gradientColor=none;gradientDirection=north;strokeWidth=2;shape=mxgraph.networks.pc;" vertex="1" parent="1">
          <mxGeometry x="650" y="420" width="100" height="70" as="geometry" />
        </mxCell>
        <mxCell id="GpLW6nzXxRdVSaPpqpkO-34" style="edgeStyle=orthogonalEdgeStyle;rounded=0;orthogonalLoop=1;jettySize=auto;html=1;" edge="1" parent="1" source="GpLW6nzXxRdVSaPpqpkO-6" target="GpLW6nzXxRdVSaPpqpkO-5">
          <mxGeometry relative="1" as="geometry" />
        </mxCell>
        <mxCell id="GpLW6nzXxRdVSaPpqpkO-6" value="" style="fontColor=#0066CC;verticalAlign=top;verticalLabelPosition=bottom;labelPosition=center;align=center;html=1;outlineConnect=0;fillColor=#CCCCCC;strokeColor=#6881B3;gradientColor=none;gradientDirection=north;strokeWidth=2;shape=mxgraph.networks.pc;" vertex="1" parent="1">
          <mxGeometry x="800" y="420" width="100" height="70" as="geometry" />
        </mxCell>
        <mxCell id="GpLW6nzXxRdVSaPpqpkO-40" style="edgeStyle=orthogonalEdgeStyle;rounded=0;orthogonalLoop=1;jettySize=auto;html=1;" edge="1" parent="1" source="GpLW6nzXxRdVSaPpqpkO-7" target="GpLW6nzXxRdVSaPpqpkO-37">
          <mxGeometry relative="1" as="geometry" />
        </mxCell>
        <mxCell id="GpLW6nzXxRdVSaPpqpkO-7" value="" style="fontColor=#0066CC;verticalAlign=top;verticalLabelPosition=bottom;labelPosition=center;align=center;html=1;outlineConnect=0;fillColor=#CCCCCC;strokeColor=#6881B3;gradientColor=none;gradientDirection=north;strokeWidth=2;shape=mxgraph.networks.wireless_modem;" vertex="1" parent="1">
          <mxGeometry x="620" y="-60" width="100" height="85" as="geometry" />
        </mxCell>
        <mxCell id="GpLW6nzXxRdVSaPpqpkO-16" style="edgeStyle=orthogonalEdgeStyle;rounded=0;orthogonalLoop=1;jettySize=auto;html=1;" edge="1" parent="1" source="GpLW6nzXxRdVSaPpqpkO-8" target="GpLW6nzXxRdVSaPpqpkO-14">
          <mxGeometry relative="1" as="geometry" />
        </mxCell>
        <mxCell id="GpLW6nzXxRdVSaPpqpkO-8" value="" style="sketch=0;pointerEvents=1;shadow=0;dashed=0;html=1;strokeColor=none;fillColor=#505050;labelPosition=center;verticalLabelPosition=bottom;outlineConnect=0;verticalAlign=top;align=center;shape=mxgraph.office.clouds.cloud;" vertex="1" parent="1">
          <mxGeometry x="-629" y="-132.5" width="204" height="145" as="geometry" />
        </mxCell>
        <mxCell id="GpLW6nzXxRdVSaPpqpkO-24" style="edgeStyle=orthogonalEdgeStyle;rounded=0;orthogonalLoop=1;jettySize=auto;html=1;entryX=1;entryY=0.5;entryDx=0;entryDy=0;entryPerimeter=0;" edge="1" parent="1" source="GpLW6nzXxRdVSaPpqpkO-9" target="GpLW6nzXxRdVSaPpqpkO-10">
          <mxGeometry relative="1" as="geometry" />
        </mxCell>
        <mxCell id="GpLW6nzXxRdVSaPpqpkO-9" value="" style="fontColor=#0066CC;verticalAlign=top;verticalLabelPosition=bottom;labelPosition=center;align=center;html=1;outlineConnect=0;fillColor=#CCCCCC;strokeColor=#6881B3;gradientColor=none;gradientDirection=north;strokeWidth=2;shape=mxgraph.networks.security_camera;" vertex="1" parent="1">
          <mxGeometry x="840" y="-60" width="100" height="75" as="geometry" />
        </mxCell>
        <mxCell id="GpLW6nzXxRdVSaPpqpkO-23" style="edgeStyle=orthogonalEdgeStyle;rounded=0;orthogonalLoop=1;jettySize=auto;html=1;" edge="1" parent="1" source="GpLW6nzXxRdVSaPpqpkO-10" target="GpLW6nzXxRdVSaPpqpkO-7">
          <mxGeometry relative="1" as="geometry" />
        </mxCell>
        <mxCell id="GpLW6nzXxRdVSaPpqpkO-25" style="edgeStyle=orthogonalEdgeStyle;rounded=0;orthogonalLoop=1;jettySize=auto;html=1;startArrow=none;" edge="1" parent="1" source="GpLW6nzXxRdVSaPpqpkO-48" target="GpLW6nzXxRdVSaPpqpkO-3">
          <mxGeometry relative="1" as="geometry">
            <Array as="points">
              <mxPoint x="670" y="175" />
              <mxPoint x="670" y="263" />
              <mxPoint x="450" y="263" />
              <mxPoint x="450" y="365" />
            </Array>
          </mxGeometry>
        </mxCell>
        <mxCell id="GpLW6nzXxRdVSaPpqpkO-42" style="edgeStyle=orthogonalEdgeStyle;rounded=0;orthogonalLoop=1;jettySize=auto;html=1;" edge="1" parent="1" source="GpLW6nzXxRdVSaPpqpkO-10" target="GpLW6nzXxRdVSaPpqpkO-41">
          <mxGeometry relative="1" as="geometry" />
        </mxCell>
        <mxCell id="GpLW6nzXxRdVSaPpqpkO-10" value="" style="fontColor=#0066CC;verticalAlign=top;verticalLabelPosition=bottom;labelPosition=center;align=center;html=1;outlineConnect=0;fillColor=#CCCCCC;strokeColor=#6881B3;gradientColor=none;gradientDirection=north;strokeWidth=2;shape=mxgraph.networks.switch;" vertex="1" parent="1">
          <mxGeometry x="710" y="160" width="100" height="30" as="geometry" />
        </mxCell>
        <mxCell id="GpLW6nzXxRdVSaPpqpkO-21" style="edgeStyle=orthogonalEdgeStyle;rounded=0;orthogonalLoop=1;jettySize=auto;html=1;" edge="1" parent="1" source="GpLW6nzXxRdVSaPpqpkO-11" target="GpLW6nzXxRdVSaPpqpkO-12">
          <mxGeometry relative="1" as="geometry" />
        </mxCell>
        <mxCell id="GpLW6nzXxRdVSaPpqpkO-11" value="" style="verticalLabelPosition=bottom;sketch=0;aspect=fixed;html=1;verticalAlign=top;strokeColor=none;align=center;outlineConnect=0;shape=mxgraph.citrix.reporting;" vertex="1" parent="1">
          <mxGeometry x="250" y="190" width="61.5" height="69" as="geometry" />
        </mxCell>
        <mxCell id="GpLW6nzXxRdVSaPpqpkO-12" value="" style="verticalLabelPosition=bottom;sketch=0;aspect=fixed;html=1;verticalAlign=top;strokeColor=none;align=center;outlineConnect=0;shape=mxgraph.citrix.datacenter;" vertex="1" parent="1">
          <mxGeometry x="217" y="360" width="127.5" height="135" as="geometry" />
        </mxCell>
        <mxCell id="GpLW6nzXxRdVSaPpqpkO-13" value="" style="verticalLabelPosition=bottom;sketch=0;aspect=fixed;html=1;verticalAlign=top;strokeColor=none;align=center;outlineConnect=0;shape=mxgraph.citrix.laptop_2;" vertex="1" parent="1">
          <mxGeometry x="-20" y="131.75" width="116" height="86.5" as="geometry" />
        </mxCell>
        <mxCell id="GpLW6nzXxRdVSaPpqpkO-19" style="edgeStyle=orthogonalEdgeStyle;rounded=0;orthogonalLoop=1;jettySize=auto;html=1;" edge="1" parent="1" source="GpLW6nzXxRdVSaPpqpkO-14" target="GpLW6nzXxRdVSaPpqpkO-18">
          <mxGeometry relative="1" as="geometry" />
        </mxCell>
        <mxCell id="GpLW6nzXxRdVSaPpqpkO-14" value="" style="fontColor=#0066CC;verticalAlign=top;verticalLabelPosition=bottom;labelPosition=center;align=center;html=1;outlineConnect=0;fillColor=#CCCCCC;strokeColor=#6881B3;gradientColor=none;gradientDirection=north;strokeWidth=2;shape=mxgraph.networks.firewall;" vertex="1" parent="1">
          <mxGeometry x="150" y="-20" width="100" height="100" as="geometry" />
        </mxCell>
        <mxCell id="GpLW6nzXxRdVSaPpqpkO-17" value="" style="verticalLabelPosition=bottom;sketch=0;aspect=fixed;html=1;verticalAlign=top;strokeColor=none;align=center;outlineConnect=0;shape=mxgraph.citrix.process;" vertex="1" parent="1">
          <mxGeometry x="310" y="210" width="42" height="50.08" as="geometry" />
        </mxCell>
        <mxCell id="GpLW6nzXxRdVSaPpqpkO-37" value="" style="verticalLabelPosition=bottom;sketch=0;aspect=fixed;html=1;verticalAlign=top;strokeColor=none;align=center;outlineConnect=0;shape=mxgraph.citrix.cell_phone;" vertex="1" parent="1">
          <mxGeometry x="495" y="-47.5" width="25" height="60" as="geometry" />
        </mxCell>
        <mxCell id="GpLW6nzXxRdVSaPpqpkO-41" value="" style="fontColor=#0066CC;verticalAlign=top;verticalLabelPosition=bottom;labelPosition=center;align=center;html=1;outlineConnect=0;fillColor=#CCCCCC;strokeColor=#6881B3;gradientColor=none;gradientDirection=north;strokeWidth=2;shape=mxgraph.networks.web_server;" vertex="1" parent="1">
          <mxGeometry x="1060" y="350" width="105" height="105" as="geometry" />
        </mxCell>
        <mxCell id="GpLW6nzXxRdVSaPpqpkO-44" style="edgeStyle=orthogonalEdgeStyle;rounded=0;orthogonalLoop=1;jettySize=auto;html=1;entryX=0.5;entryY=1;entryDx=0;entryDy=0;entryPerimeter=0;" edge="1" parent="1" source="GpLW6nzXxRdVSaPpqpkO-43" target="GpLW6nzXxRdVSaPpqpkO-10">
          <mxGeometry relative="1" as="geometry" />
        </mxCell>
        <mxCell id="GpLW6nzXxRdVSaPpqpkO-43" value="" style="fontColor=#0066CC;verticalAlign=top;verticalLabelPosition=bottom;labelPosition=center;align=center;html=1;outlineConnect=0;fillColor=#CCCCCC;strokeColor=#6881B3;gradientColor=none;gradientDirection=north;strokeWidth=2;shape=mxgraph.networks.storage;" vertex="1" parent="1">
          <mxGeometry x="1220" y="190" width="100" height="100" as="geometry" />
        </mxCell>
        <mxCell id="GpLW6nzXxRdVSaPpqpkO-46" style="edgeStyle=orthogonalEdgeStyle;rounded=0;orthogonalLoop=1;jettySize=auto;html=1;" edge="1" parent="1" source="GpLW6nzXxRdVSaPpqpkO-45" target="GpLW6nzXxRdVSaPpqpkO-11">
          <mxGeometry relative="1" as="geometry" />
        </mxCell>
        <mxCell id="GpLW6nzXxRdVSaPpqpkO-45" value="" style="sketch=0;pointerEvents=1;shadow=0;dashed=0;html=1;strokeColor=none;fillColor=#505050;labelPosition=center;verticalLabelPosition=bottom;outlineConnect=0;verticalAlign=top;align=center;shape=mxgraph.office.clouds.online_backup;" vertex="1" parent="1">
          <mxGeometry x="-80" y="310" width="94" height="101" as="geometry" />
        </mxCell>
        <mxCell id="GpLW6nzXxRdVSaPpqpkO-47" value="" style="edgeStyle=orthogonalEdgeStyle;rounded=0;orthogonalLoop=1;jettySize=auto;html=1;endArrow=none;" edge="1" parent="1" source="GpLW6nzXxRdVSaPpqpkO-10" target="GpLW6nzXxRdVSaPpqpkO-48">
          <mxGeometry relative="1" as="geometry">
            <mxPoint x="710" y="175.07692307692287" as="sourcePoint" />
            <mxPoint x="520" y="365.07692307692287" as="targetPoint" />
            <Array as="points" />
          </mxGeometry>
        </mxCell>
        <mxCell id="GpLW6nzXxRdVSaPpqpkO-48" value="" style="sketch=0;pointerEvents=1;shadow=0;dashed=0;html=1;strokeColor=none;labelPosition=center;verticalLabelPosition=bottom;verticalAlign=top;outlineConnect=0;align=center;shape=mxgraph.office.concepts.firewall;fillColor=#DA4026;" vertex="1" parent="1">
          <mxGeometry x="640.5" y="155.5" width="47" height="43" as="geometry" />
        </mxCell>
      </root>
    </mxGraphModel>
  </diagram>
</mxfile>
